<svg xmlns="http://www.w3.org/2000/svg" version="1.1" xmlns:xlink="http://www.w3.org/1999/xlink" xmlns:svgjs="http://svgjs.dev/svgjs" width="100%" height="100%" viewBox="0 0 1000 600"><rect width="1000" height="600" x="0" y="0" fill="BLACK"/><g><circle r="166.66666666666666" cx="494.1069132486979" cy="516.329253692908" fill="white" transform="matrix(0.3817489686441533,0,0,0.3817489686441533,0,102.89184949299859)"/><path d="M496.8651071140409 591.3292900852657L496.8651071140409 591.3292900852657Q474.68200805899187 591.3292900852657 459.2477354360344 583.2013556431381Q443.84280553669487 575.0734212010102 435.6855283709493 558.494782356959Q427.5575939288216 541.9161435129079 427.5575939288216 516.3292885181952L427.5575939288216 516.3292885181952Q427.5575939288216 478.53586049848207 445.9554816371757 459.93257372480343Q464.3240266219121 441.32928695112474 497.0705061793654 441.32928695112474L497.0705061793654 441.32928695112474Q515.6737929530441 441.32928695112474 530.0223848021433 447.3738880163894Q544.4003193748601 453.3891463580363 552.5282538169879 465.5370339358012Q560.6561882591157 477.68492151356617 560.6561882591157 496.05346649830256L560.6561882591157 496.05346649830256L540.380366239223 496.05346649830256Q540.380366239223 483.3774098954174 534.9813050935497 475.13210455881847Q529.6115866714943 466.91614194583735 519.8991451540057 462.778817915729Q510.1573609128996 458.67083660923845 497.0705061793654 458.67083660923845L497.0705061793654 458.67083660923845Q481.8709753453503 458.67083660923845 470.8674539886792 464.56872405641417Q459.89327535562586 470.4959542272077 454.1714442501568 482.8492408702972Q448.47895586830566 495.20252751338666 448.47895586830566 514.6567532719812L448.47895586830566 514.6567532719812L448.47895586830566 519.0875045382675Q448.47895586830566 538.3069885079198 454.1714442501568 550.4548760856846Q459.89327535562586 562.6027636634497 470.77942581782577 568.3245947689186Q481.636233556408 574.0170831507697 497.0705061793654 574.0170831507697L497.0705061793654 574.0170831507697Q510.5975017671665 574.0170831507697 520.427314179126 569.9971300151326Q530.2277838674678 565.9771768794953 535.6268450131411 557.6438433720432Q541.0259061588145 549.3105098645908 541.0259061588145 536.6344532617057L541.0259061588145 536.6344532617057L560.6561882591157 536.6344532617057Q560.6561882591157 555.4137963770911 552.3228547516634 567.4736557840027Q543.9601785205933 579.5041724672965 529.6115866714943 585.4314026380899Q515.2336520987772 591.3292900852657 496.8651071140409 591.3292900852657Z " fill="black" transform="matrix(0.3817489686441533,0,0,0.3817489686441533,0,102.89184949299859)"/><path d="M813.4144082615016 591.3292900852657L813.4144082615016 591.3292900852657Q791.2313092064527 591.3292900852657 775.7970365834954 583.2013556431381Q760.3921066841557 575.0734212010102 752.2348295184102 558.494782356959Q744.1068950762824 541.9161435129079 744.1068950762824 516.3292885181952L744.1068950762824 516.3292885181952Q744.1068950762824 478.53586049848207 762.5047827846365 459.93257372480343Q780.873327769373 441.32928695112474 813.6198073268263 441.32928695112474L813.6198073268263 441.32928695112474Q832.2230941005049 441.32928695112474 846.5716859496041 447.3738880163894Q860.9496205223211 453.3891463580363 869.0775549644488 465.5370339358012Q877.2054894065766 477.68492151356617 877.2054894065766 496.05346649830256L877.2054894065766 496.05346649830256L856.9296673866838 496.05346649830256Q856.9296673866838 483.3774098954174 851.5306062410106 475.13210455881847Q846.1608878189551 466.91614194583735 836.4484463014667 462.778817915729Q826.7066620603605 458.67083660923845 813.6198073268263 458.67083660923845L813.6198073268263 458.67083660923845Q798.4202764928111 458.67083660923845 787.41675513614 464.56872405641417Q776.4425765030867 470.4959542272077 770.7207453976177 482.8492408702972Q765.0282570157665 495.20252751338666 765.0282570157665 514.6567532719812L765.0282570157665 514.6567532719812L765.0282570157665 519.0875045382675Q765.0282570157665 538.3069885079198 770.7207453976177 550.4548760856846Q776.4425765030867 562.6027636634497 787.3287269652867 568.3245947689186Q798.1855347038688 574.0170831507697 813.6198073268263 574.0170831507697L813.6198073268263 574.0170831507697Q827.1468029146273 574.0170831507697 836.9766153265869 569.9971300151326Q846.7770850149286 565.9771768794953 852.1761461606019 557.6438433720432Q857.5752073062753 549.3105098645908 857.5752073062753 536.6344532617057L857.5752073062753 536.6344532617057L877.2054894065766 536.6344532617057Q877.2054894065766 555.4137963770911 868.8721558991242 567.4736557840027Q860.5094796680543 579.5041724672965 846.1608878189551 585.4314026380899Q831.7829532462381 591.3292900852657 813.4144082615016 591.3292900852657ZM965.5270874961236 588.8058158541359L945.2512654762309 588.8058158541359L945.2512654762309 528.5945469904314L888.2090107632478 443.88210390587244L911.2137060795949 443.88210390587244L955.3745051243684 510.84219920166856L956.4308431746088 510.84219920166856L1000.3862431540579 443.88210390587244L1022.3639431437823 443.88210390587244L965.5270874961236 528.5945469904314L965.5270874961236 588.8058158541359ZM1117.434367665421 588.8058158541359L1042.6397651636748 588.8058158541359L1042.6397651636748 443.88210390587244L1117.434367665421 443.88210390587244Q1129.8756824793638 443.88210390587244 1138.9719268008787 448.1954842776875Q1148.0681711223933 452.5382073731204 1153.0270914137998 460.34337185545246Q1157.9860117052062 468.17787906140234 1157.9860117052062 478.94665862913115L1157.9860117052062 478.94665862913115Q1157.9860117052062 487.19196396573005 1155.0223966198096 494.14618946314624Q1152.0587815344127 501.12975768418016 1146.7770912832107 505.76590801579096Q1141.4954010320084 510.4314010710195 1134.746574599917 512.7494762368249L1134.746574599917 512.7494762368249L1134.746574599917 513.6004152217408Q1142.3463400169244 515.2729504679548 1148.4789692530426 519.7330444578588Q1154.6115984891605 524.1637957241451 1158.308781665002 531.4407911813569Q1162.0059648408435 538.7471293621866 1162.0059648408435 549.3105098645908L1162.0059648408435 549.3105098645908Q1162.0059648408435 563.4537026483655 1156.07873467005 572.1098061156134Q1150.1808472228743 580.7659095828615 1140.2336639164437 584.7858627184986Q1130.3158233336305 588.8058158541359 1117.434367665421 588.8058158541359L1117.434367665421 588.8058158541359ZM1062.7101881182432 523.1074576739047L1062.7101881182432 571.4936089196399L1117.1996258764786 571.4936089196399Q1127.9977481678252 571.4936089196399 1134.746574599917 565.8891487086421Q1141.4954010320084 560.2846884976442 1141.4954010320084 547.19783376411L1141.4954010320084 547.19783376411Q1141.4954010320084 539.1579274928356 1138.5611286702294 533.7588663471623Q1135.5975135848328 528.3891479251067 1129.8756824793638 525.7483027995057Q1124.1831940975126 523.1074576739047 1115.5270906302646 523.1074576739047L1115.5270906302646 523.1074576739047L1062.7101881182432 523.1074576739047ZM1062.7101881182432 461.19431084036836L1062.7101881182432 506.00064980473326L1113.6198135951083 506.00064980473326Q1120.8087808814669 506.00064980473326 1126.0904711326689 503.12506289018984Q1131.3721613838711 500.27881869926426 1134.4238046401213 495.11449934253324Q1137.504790619989 489.9208372621845 1137.504790619989 483.3774098954174L1137.504790619989 483.3774098954174Q1137.504790619989 471.9630904080972 1131.3721613838711 466.5933719860417Q1125.239532147753 461.19431084036836 1115.0869497759977 461.19431084036836L1115.0869497759977 461.19431084036836L1062.7101881182432 461.19431084036836ZM1302.9097236534699 588.8058158541359L1190.0869513430682 588.8058158541359L1190.0869513430682 443.88210390587244L1301.6479865379047 443.88210390587244L1301.6479865379047 461.19431084036836L1210.1573742976366 461.19431084036836L1210.1573742976366 506.00064980473326L1292.3463431510654 506.00064980473326L1292.3463431510654 523.3128567392291L1210.1573742976366 523.3128567392291L1210.1573742976366 571.4936089196399L1302.9097236534699 571.4936089196399L1302.9097236534699 588.8058158541359ZM1353.2031519343614 588.8058158541359L1333.1327289797932 588.8058158541359L1333.1327289797932 443.88210390587244L1409.3944676624287 443.88210390587244Q1424.1832003657946 443.88210390587244 1434.0130127777543 449.2518223279279Q1443.8428251897137 454.65088347360125 1448.684374586649 464.2752968202363Q1453.555266707202 473.8703674432535 1453.555266707202 486.34102498081415L1453.555266707202 486.34102498081415Q1453.555266707202 501.3351567495047 1446.7770975514927 512.1039363172335Q1440.028271119401 522.9020586085801 1428.2031535014319 527.5382089401909L1428.2031535014319 527.5382089401909L1458.6315578930798 588.8058158541359L1436.6538579033554 588.8058158541359L1408.3381296121881 531.1180212215613L1353.2031519343614 531.1180212215613L1353.2031519343614 588.8058158541359ZM1353.2031519343614 461.19431084036836L1353.2031519343614 514.0112133523899L1407.4871906272724 514.0112133523899Q1419.547050034184 514.0112133523899 1426.4132473607465 506.6168470007068Q1433.2794446873095 499.22248064902385 1433.2794446873095 486.34102498081415L1433.2794446873095 486.34102498081415Q1433.2794446873095 478.30111870953976 1430.3158296019128 472.8140293930131Q1427.352214516516 467.3269400764864 1421.6597261346647 464.2752968202363Q1415.9378950291957 461.19431084036836 1407.4871906272724 461.19431084036836L1407.4871906272724 461.19431084036836L1353.2031519343614 461.19431084036836ZM1506.7829673498727 588.8058158541359L1486.7125443953046 588.8058158541359L1486.7125443953046 443.88210390587244L1589.3827343339508 443.88210390587244L1589.3827343339508 461.19431084036836L1506.7829673498727 461.19431084036836L1506.7829673498727 507.67318505094727L1581.9883679822678 507.67318505094727L1581.9883679822678 524.7799929201187L1506.7829673498727 524.7799929201187L1506.7829673498727 588.8058158541359ZM1636.096350333472 588.8058158541359L1616.0259273789038 588.8058158541359L1616.0259273789038 443.88210390587244L1636.096350333472 443.88210390587244L1636.096350333472 588.8058158541359ZM1734.3357890058319 591.3292900852657L1734.3357890058319 591.3292900852657Q1712.1526899507828 591.3292900852657 1696.7184173278256 583.2013556431381Q1681.2841447048681 575.0734212010102 1673.1562102627404 558.494782356959Q1665.0282758206126 541.9161435129079 1665.0282758206126 516.3292885181952L1665.0282758206126 516.3292885181952Q1665.0282758206126 478.53586049848207 1683.3968208053489 459.93257372480343Q1701.794708513703 441.32928695112474 1734.5411880711563 441.32928695112474L1734.5411880711563 441.32928695112474Q1753.1151321212174 441.32928695112474 1767.493066693934 447.3738880163894Q1781.871001266651 453.3891463580363 1789.9989357087788 465.5370339358012Q1798.1268701509066 477.68492151356617 1798.1268701509066 496.05346649830256L1798.1268701509066 496.05346649830256L1777.851048131014 496.05346649830256Q1777.851048131014 483.3774098954174 1772.4519869853407 475.13210455881847Q1767.0822685632852 466.91614194583735 1757.340484322179 462.778817915729Q1747.6280428046907 458.67083660923845 1734.5411880711563 458.67083660923845L1734.5411880711563 458.67083660923845Q1719.3123145135235 458.67083660923845 1708.3381358804702 464.56872405641417Q1697.363957247417 470.4959542272077 1691.6421261419478 482.8492408702972Q1685.9496377600967 495.20252751338666 1685.9496377600967 514.6567532719812L1685.9496377600967 514.6567532719812L1685.9496377600967 519.0875045382675Q1685.9496377600967 538.3069885079198 1691.6421261419478 550.4548760856846Q1697.363957247417 562.6027636634497 1708.2207649859993 568.3245947689186Q1719.1069154481988 574.0170831507697 1734.5411880711563 574.0170831507697L1734.5411880711563 574.0170831507697Q1748.0681836589574 574.0170831507697 1757.8686533472992 569.9971300151326Q1767.6984657592589 565.9771768794953 1773.0975269049322 557.6438433720432Q1778.4672453269877 549.3105098645908 1778.4672453269877 536.6344532617057L1778.4672453269877 536.6344532617057L1798.1268701509066 536.6344532617057Q1798.1268701509066 555.4137963770911 1789.7935366434544 567.4736557840027Q1781.4308604123844 579.5041724672965 1767.0822685632852 585.4314026380899Q1752.704333990568 591.3292900852657 1734.3357890058319 591.3292900852657ZM1877.5576229842636 588.8058158541359L1857.4872000296955 588.8058158541359L1857.4872000296955 461.3997099056929L1807.839311668395 461.3997099056929L1807.839311668395 443.88210390587244L1927.6456521998307 443.88210390587244L1927.6456521998307 461.3997099056929L1877.5576229842636 461.3997099056929L1877.5576229842636 588.8058158541359ZM1970.1045732747725 588.8058158541359L1950.034150320204 588.8058158541359L1950.034150320204 443.88210390587244L1970.1045732747725 443.88210390587244L1970.1045732747725 588.8058158541359ZM2071.5130260978535 591.3292900852657L2071.5130260978535 591.3292900852657Q2048.8897861885375 591.3292900852657 2032.7512881987532 583.1133274722846Q2016.583447485351 574.8680221356857 2007.809973123632 558.1720123971634Q1999.0364987619128 541.476002658641 1999.0364987619128 516.3292885181952L1999.0364987619128 516.3292885181952Q1999.0364987619128 490.9771753124249 2007.809973123632 474.3985364683737Q2016.583447485351 457.81989762432255 2032.7512881987532 449.5745922877236Q2048.8897861885375 441.32928695112474 2071.5130260978535 441.32928695112474L2071.5130260978535 441.32928695112474Q2094.1069232835516 441.32928695112474 2110.2747639969534 449.5745922877236Q2126.4426047103557 457.81989762432255 2135.216079072075 474.3985364683737Q2143.9602107101764 490.9771753124249 2143.9602107101764 516.3292885181952L2143.9602107101764 516.3292885181952Q2143.9602107101764 541.476002658641 2135.216079072075 558.1720123971634Q2126.4426047103557 574.8680221356857 2110.2747639969534 583.1133274722846Q2094.1069232835516 591.3292900852657 2071.5130260978535 591.3292900852657ZM2071.5130260978535 574.0170831507697L2071.5130260978535 574.0170831507697Q2083.3381437158228 574.0170831507697 2092.962557062458 570.8480690000486Q2102.557627685475 567.6790548493273 2109.2184259467135 560.8128575227645Q2115.8792242079517 553.9466601962016 2119.4590364893215 543.5006505882685Q2123.0681914943098 533.0252982567176 2123.0681914943098 518.6767064076184L2123.0681914943098 518.6767064076184L2123.0681914943098 514.2166124177144Q2123.0681914943098 499.66262150329067 2119.4590364893215 489.18726917173973Q2115.8792242079517 478.74125956380664 2109.2184259467135 471.8750622372438Q2102.557627685475 465.00886491068104 2092.962557062458 461.83985075995975Q2083.3381437158228 458.67083660923845 2071.5130260978535 458.67083660923845L2071.5130260978535 458.67083660923845Q2059.453166690942 458.67083660923845 2049.946124238778 461.83985075995975Q2040.4390817866142 465.00886491068104 2033.6902553545224 471.8750622372438Q2026.941428922431 478.74125956380664 2023.449644811914 489.18726917173973Q2019.9578607013968 499.66262150329067 2019.9578607013968 514.2166124177144L2019.9578607013968 514.2166124177144L2019.9578607013968 518.6767064076184Q2019.9578607013968 533.0252982567176 2023.449644811914 543.5006505882685Q2026.941428922431 553.9466601962016 2033.6902553545224 560.8128575227645Q2040.4390817866142 567.6790548493273 2049.946124238778 570.8480690000486Q2059.453166690942 574.0170831507697 2071.5130260978535 574.0170831507697ZM2192.3463619559116 588.8058158541359L2172.9214789209345 588.8058158541359L2172.9214789209345 443.88210390587244L2192.3463619559116 443.88210390587244L2262.7102131913716 539.3633265581602Q2263.7665512416115 540.6250636737251 2265.4390864878255 543.1778806284728Q2267.1409644576574 545.7013548596027 2268.8428424274894 548.1368009198793Q2270.5153776737034 550.5722469801558 2271.5717157239437 552.4795240153121L2271.5717157239437 552.4795240153121L2272.4226547088597 552.4795240153121Q2272.4226547088597 549.0757680756485 2272.4226547088597 545.818725754074Q2272.4226547088597 542.5323407088815 2272.4226547088597 539.3633265581602L2272.4226547088597 539.3633265581602L2272.4226547088597 443.88210390587244L2292.082279532779 443.88210390587244L2292.082279532779 588.8058158541359L2273.684391824425 588.8058158541359L2202.498944327667 491.6227152320163Q2201.0024654231597 489.30464006621094 2198.1562212322337 485.07928786524917Q2195.3099770413082 480.85393566428746 2193.402700006152 478.30111870953976L2193.402700006152 478.30111870953976L2192.3463619559116 478.30111870953976Q2192.3463619559116 481.70487464920336 2192.3463619559116 484.961916970778Q2192.3463619559116 488.24830201597047 2192.3463619559116 491.6227152320163L2192.3463619559116 491.6227152320163L2192.3463619559116 588.8058158541359Z " fill="white" transform="matrix(0.3817489686441533,0,0,0.3817489686441533,0,102.89184949299859)"/></g></svg>